<?xml version="1.0" encoding="UTF-8"?>
<svg version="1.1" xmlns="http://www.w3.org/2000/svg" width="500" height="500">
<path d="M0 0 C165 0 330 0 500 0 C500 165 500 330 500 500 C335 500 170 500 0 500 C0 335 0 170 0 0 Z " fill="#FAFCFB" transform="translate(0,0)"/>
<path d="M0 0 C0.97167618 -0.00686325 1.94335236 -0.0137265 2.94447327 -0.02079773 C6.14233193 -0.03903218 9.33969837 -0.03523256 12.53759766 -0.02954102 C14.77047891 -0.03410474 17.00335876 -0.03941088 19.23623657 -0.04542542 C23.91161817 -0.0543502 28.58682891 -0.05194086 33.26220703 -0.04199219 C39.23965057 -0.03050942 45.21650276 -0.05070714 51.19386864 -0.07990932 C55.80426756 -0.09829857 60.41452552 -0.09797329 65.02495193 -0.0922718 C67.22806248 -0.09211889 69.43118276 -0.0981382 71.63425827 -0.11056328 C74.72138779 -0.12552082 77.80743449 -0.11476029 80.89453125 -0.09765625 C82.24613594 -0.1121582 82.24613594 -0.1121582 83.62504578 -0.12695312 C92.541563 -0.02404531 99.72997891 3.05737148 106.07666016 9.40405273 C110.25305707 15.17630863 112.1924381 19.55706757 112.25366211 26.76806641 C112.27291496 28.74107979 112.27291496 28.74107979 112.29255676 30.75395203 C112.30072621 32.19330467 112.30816955 33.63266159 112.31494141 35.07202148 C112.31901693 35.79846674 112.32309246 36.52491199 112.32729149 37.27337074 C112.34814132 41.12104633 112.36244574 44.96868642 112.37182617 48.81640625 C112.38286749 52.77628993 112.41724339 56.7356081 112.45699787 60.69529247 C112.48324154 63.75209035 112.49152499 66.80875529 112.49510765 69.8656559 C112.49995639 71.32440304 112.51152128 72.78314493 112.53014565 74.24178123 C112.6381715 83.26563408 112.41320502 90.14857336 106.43603516 97.39233398 C97.14672401 105.03572349 90.88671202 104.40405273 78.07666016 104.40405273 C78.07666016 118.59405273 78.07666016 132.78405273 78.07666016 147.40405273 C76.07666016 147.40405273 76.07666016 147.40405273 73.85009766 145.29858398 C72.92456951 144.33474643 72.00016971 143.36982459 71.07666016 142.40405273 C70.05104317 141.384071 69.02228161 140.36724341 67.99072266 139.35327148 C58.11059925 129.56847869 58.11059925 129.56847869 54.51416016 125.34155273 C51.47349053 121.77505302 48.24420082 118.42394863 44.95166016 115.09155273 C44.44820068 114.57520264 43.94474121 114.05885254 43.42602539 113.52685547 C38.51451619 108.60240208 34.92202357 106.42621373 28.07666016 105.40405273 C28.0855426 106.02299911 28.09442505 106.6419455 28.10357666 107.27964783 C28.19243769 113.75274369 28.25255468 120.22566475 28.29638672 126.69921875 C28.31643568 129.11139979 28.34368208 131.52353263 28.37841797 133.93554688 C28.42723066 137.41345146 28.44969699 140.89071045 28.46728516 144.36889648 C28.4879303 145.43800766 28.50857544 146.50711884 28.52984619 147.60862732 C28.53237459 156.14790369 26.57359239 163.20243294 20.82666016 169.71655273 C20.30587891 170.33143555 19.78509766 170.94631836 19.24853516 171.57983398 C12.93734077 176.88078323 7.05707307 177.96150245 -1.01318359 177.80249023 C-2.95133585 177.80722538 -4.88948696 177.81244869 -6.82763672 177.81811523 C-9.84697094 177.80339037 -12.86584297 177.77899457 -15.88500977 177.74389648 C-18.82412599 177.71708366 -21.76151264 177.72686495 -24.70068359 177.73999023 C-25.59158188 177.71834808 -26.48248016 177.69670593 -27.40037537 177.67440796 C-35.50841177 177.7375784 -40.32254154 181.29910207 -46.30615234 186.45874023 C-47.16853516 187.35979492 -47.16853516 187.35979492 -48.04833984 188.27905273 C-49.04027344 189.3096582 -49.04027344 189.3096582 -50.05224609 190.36108398 C-51.73652665 192.20007924 -53.3682187 194.06903786 -54.98583984 195.96655273 C-58.64067841 200.20515024 -62.54923902 204.17931118 -66.48583984 208.15405273 C-67.12336182 208.80446533 -67.76088379 209.45487793 -68.41772461 210.125 C-72.02897018 213.74373099 -75.55650406 216.73954276 -79.92333984 219.40405273 C-80.89183108 210.14060332 -81.04524008 200.96083655 -80.98583984 191.65405273 C-80.98080841 190.26342937 -80.97624845 188.87280422 -80.97216797 187.48217773 C-80.96050331 184.12275568 -80.94413598 180.76342855 -80.92333984 177.40405273 C-81.85782959 177.43450684 -82.79231934 177.46496094 -83.75512695 177.49633789 C-93.71079432 177.68648706 -100.98671898 176.58722937 -108.70849609 169.84545898 C-113.10006332 164.91614883 -114.17134939 160.10205323 -114.24560547 153.66113281 C-114.25553528 153.00346924 -114.26546509 152.34580566 -114.2756958 151.66821289 C-114.30478202 149.50329311 -114.31851814 147.33866666 -114.32958984 145.17358398 C-114.3352446 144.42940405 -114.34089935 143.68522411 -114.34672546 142.91849327 C-114.37665232 138.97771168 -114.39514512 135.03707534 -114.40380859 131.09619141 C-114.41475027 127.04878612 -114.46275788 123.00273604 -114.5197525 118.95575428 C-114.55722616 115.82336198 -114.56742808 112.69128842 -114.57048035 109.55869102 C-114.57648839 108.06806748 -114.59239201 106.57744648 -114.61885071 105.08704567 C-114.77019579 95.90403994 -114.13147636 88.63294025 -107.92333984 81.40405273 C-105.39041151 79.12166374 -102.84793502 77.15644175 -99.92333984 75.40405273 C-99.35786438 75.054888 -98.79238892 74.70572327 -98.20977783 74.34597778 C-95.1764729 73.0963721 -92.68978575 73.16448615 -89.41064453 73.17700195 C-88.76632477 73.1767099 -88.122005 73.17641785 -87.4581604 73.17611694 C-85.33703963 73.17750579 -83.21627395 73.19304558 -81.09521484 73.20874023 C-79.62119743 73.21247196 -78.14717752 73.21531818 -76.67315674 73.21731567 C-72.79989737 73.22493962 -68.9267888 73.24457738 -65.05358887 73.26672363 C-61.09873494 73.2872088 -57.14385657 73.2963231 -53.18896484 73.30639648 C-45.43368788 73.32782452 -37.67853502 73.36194541 -29.92333984 73.40405273 C-29.9344429 72.76227081 -29.94554596 72.12048889 -29.95698547 71.45925903 C-30.06812685 64.74275719 -30.14323356 58.02651915 -30.19799805 51.30932617 C-30.22304777 48.80693947 -30.25709727 46.30462525 -30.30053711 43.80249023 C-30.36160646 40.19293267 -30.38964658 36.58434754 -30.41162109 32.97436523 C-30.43742752 31.86666779 -30.46323395 30.75897034 -30.48982239 29.6177063 C-30.49280268 21.24992922 -28.72871913 14.51130085 -22.93305969 8.25588989 C-15.91138262 1.58956879 -9.41432679 -0.04682259 0 0 Z " fill="#F6FAFA" transform="translate(250.92333984375,139.595947265625)"/>
<path d="M0 0 C0.9960022 -0.00730133 1.99200439 -0.01460266 3.01818848 -0.02212524 C6.29595084 -0.03827924 9.57171772 -0.01117078 12.84936523 0.01806641 C15.13427224 0.01910425 17.41918106 0.01806636 19.7040863 0.01504517 C24.48642735 0.01522435 29.26809224 0.03602948 34.05029297 0.07226562 C40.17606966 0.11766588 46.30086008 0.11872112 52.42675877 0.10523033 C57.14260097 0.09854366 61.85821884 0.11182364 66.57401848 0.1314888 C68.83261885 0.13917895 71.0912442 0.14149496 73.34985542 0.13831711 C76.5071572 0.13757427 79.66320013 0.16285429 82.8203125 0.1953125 C83.7508696 0.19035767 84.6814267 0.18540283 85.6401825 0.18029785 C91.20522862 0.27148137 94.44013269 1.01853394 98.84545898 4.74462891 C102.84366594 9.2831341 103.96829299 11.62678615 104.02246094 17.62792969 C104.04171379 19.48093185 104.04171379 19.48093185 104.06135559 21.37136841 C104.06952598 22.72755532 104.07696914 24.08374678 104.08374023 25.43994141 C104.08781576 26.12317348 104.09189129 26.80640556 104.09609032 27.51034164 C104.11695997 31.13107755 104.13125418 34.75177553 104.140625 38.37255859 C104.15165329 42.09819831 104.18600793 45.82323477 104.2257967 49.54866219 C104.25205762 52.42445926 104.26032546 55.30011517 104.26390648 58.17602158 C104.26875308 59.54824747 104.28031178 60.92046789 104.29894447 62.29257584 C104.39935269 70.18101555 104.29089093 76.07773435 99.84545898 82.74462891 C95.49263244 86.2091235 91.90935295 87.80202986 86.39624023 88.06103516 C85.632229 88.09914307 84.86821777 88.13725098 84.08105469 88.17651367 C82.63412231 88.24116821 82.63412231 88.24116821 81.15795898 88.30712891 C76.54827148 88.52369141 76.54827148 88.52369141 71.84545898 88.74462891 C71.51545898 98.97462891 71.18545898 109.20462891 70.84545898 119.74462891 C61.83744066 112.98861516 61.83744066 112.98861516 58.15795898 108.74462891 C57.40256836 107.88224609 56.64717773 107.01986328 55.86889648 106.13134766 C54.31048468 104.29314377 52.78680687 102.439462 51.28295898 100.55712891 C44.60840612 92.75377418 44.60840612 92.75377418 35.7787323 88.48634338 C34.9863063 88.48206833 34.19388031 88.47779327 33.37744141 88.47338867 C32.02539864 88.45810875 32.02539864 88.45810875 30.64604187 88.44252014 C29.67415421 88.4403801 28.70226654 88.43824005 27.70092773 88.43603516 C25.64168016 88.41087105 23.58243544 88.38547308 21.52319336 88.35986328 C18.27767703 88.3311419 15.03221024 88.30712457 11.78662109 88.28833008 C8.65362618 88.26663773 5.52121868 88.22718982 2.38842773 88.18603516 C1.42261276 88.18591934 0.45679779 88.18580353 -0.5382843 88.1856842 C-7.48716288 88.08391909 -11.88172838 87.06909637 -16.90454102 81.93212891 C-20.35742072 77.04054933 -21.40042238 72.6950157 -21.44506836 66.75854492 C-21.45782806 65.60036758 -21.47058777 64.44219025 -21.48373413 63.24891663 C-21.48595978 62.01129074 -21.48818542 60.77366486 -21.49047852 59.49853516 C-21.49713531 58.21405991 -21.50379211 56.92958466 -21.51065063 55.60618591 C-21.52258773 52.89375444 -21.52633504 50.18145 -21.52514648 47.46899414 C-21.52494321 44.00786116 -21.5522684 40.54754849 -21.5866909 37.08660984 C-21.61438249 33.76557357 -21.61311072 30.44468523 -21.61547852 27.12353516 C-21.62984955 25.8879335 -21.64422058 24.65233185 -21.6590271 23.37928772 C-21.61744909 15.53210147 -21.04884918 11.11859246 -15.74506283 5.16154766 C-10.76109052 0.3206053 -6.7759473 -0.11156 0 0 Z " fill="#F8FBFB" transform="translate(250.154541015625,148.25537109375)"/>
<path d="M0 0 C0.97167618 -0.00686325 1.94335236 -0.0137265 2.94447327 -0.02079773 C6.14233193 -0.03903218 9.33969837 -0.03523256 12.53759766 -0.02954102 C14.77047891 -0.03410474 17.00335876 -0.03941088 19.23623657 -0.04542542 C23.91161817 -0.0543502 28.58682891 -0.05194086 33.26220703 -0.04199219 C39.23965057 -0.03050942 45.21650276 -0.05070714 51.19386864 -0.07990932 C55.80426756 -0.09829857 60.41452552 -0.09797329 65.02495193 -0.0922718 C67.22806248 -0.09211889 69.43118276 -0.0981382 71.63425827 -0.11056328 C74.72138779 -0.12552082 77.80743449 -0.11476029 80.89453125 -0.09765625 C82.24613594 -0.1121582 82.24613594 -0.1121582 83.62504578 -0.12695312 C92.541563 -0.02404531 99.72997891 3.05737148 106.07666016 9.40405273 C110.25305707 15.17630863 112.1924381 19.55706757 112.25366211 26.76806641 C112.27291496 28.74107979 112.27291496 28.74107979 112.29255676 30.75395203 C112.30072621 32.19330467 112.30816955 33.63266159 112.31494141 35.07202148 C112.31901693 35.79846674 112.32309246 36.52491199 112.32729149 37.27337074 C112.34814132 41.12104633 112.36244574 44.96868642 112.37182617 48.81640625 C112.38286749 52.77628993 112.41724339 56.7356081 112.45699787 60.69529247 C112.48324154 63.75209035 112.49152499 66.80875529 112.49510765 69.8656559 C112.49995639 71.32440304 112.51152128 72.78314493 112.53014565 74.24178123 C112.6381715 83.26563408 112.41320502 90.14857336 106.43603516 97.39233398 C97.14672401 105.03572349 90.88671202 104.40405273 78.07666016 104.40405273 C78.07666016 118.59405273 78.07666016 132.78405273 78.07666016 147.40405273 C76.07666016 147.40405273 76.07666016 147.40405273 73.85009766 145.29858398 C72.92456951 144.33474643 72.00016971 143.36982459 71.07666016 142.40405273 C70.05104317 141.384071 69.02228161 140.36724341 67.99072266 139.35327148 C58.11059925 129.56847869 58.11059925 129.56847869 54.51416016 125.34155273 C51.47349053 121.77505302 48.24420082 118.42394863 44.95166016 115.09155273 C44.44820068 114.57520264 43.94474121 114.05885254 43.42602539 113.52685547 C38.51451619 108.60240208 34.92202357 106.42621373 28.07666016 105.40405273 C28.0855426 106.02299911 28.09442505 106.6419455 28.10357666 107.27964783 C28.19243769 113.75274369 28.25255468 120.22566475 28.29638672 126.69921875 C28.31643568 129.11139979 28.34368208 131.52353263 28.37841797 133.93554688 C28.42723066 137.41345146 28.44969699 140.89071045 28.46728516 144.36889648 C28.4879303 145.43800766 28.50857544 146.50711884 28.52984619 147.60862732 C28.53237459 156.14790369 26.57359239 163.20243294 20.82666016 169.71655273 C20.30587891 170.33143555 19.78509766 170.94631836 19.24853516 171.57983398 C12.93734077 176.88078323 7.05707307 177.96150245 -1.01318359 177.80249023 C-2.95133585 177.80722538 -4.88948696 177.81244869 -6.82763672 177.81811523 C-9.84697094 177.80339037 -12.86584297 177.77899457 -15.88500977 177.74389648 C-18.82412599 177.71708366 -21.76151264 177.72686495 -24.70068359 177.73999023 C-25.59158188 177.71834808 -26.48248016 177.69670593 -27.40037537 177.67440796 C-35.50841177 177.7375784 -40.32254154 181.29910207 -46.30615234 186.45874023 C-47.16853516 187.35979492 -47.16853516 187.35979492 -48.04833984 188.27905273 C-49.04027344 189.3096582 -49.04027344 189.3096582 -50.05224609 190.36108398 C-51.73652665 192.20007924 -53.3682187 194.06903786 -54.98583984 195.96655273 C-58.64067841 200.20515024 -62.54923902 204.17931118 -66.48583984 208.15405273 C-67.12336182 208.80446533 -67.76088379 209.45487793 -68.41772461 210.125 C-72.02897018 213.74373099 -75.55650406 216.73954276 -79.92333984 219.40405273 C-80.89183108 210.14060332 -81.04524008 200.96083655 -80.98583984 191.65405273 C-80.98080841 190.26342937 -80.97624845 188.87280422 -80.97216797 187.48217773 C-80.96050331 184.12275568 -80.94413598 180.76342855 -80.92333984 177.40405273 C-81.85782959 177.43450684 -82.79231934 177.46496094 -83.75512695 177.49633789 C-93.71079432 177.68648706 -100.98671898 176.58722937 -108.70849609 169.84545898 C-113.10006332 164.91614883 -114.17134939 160.10205323 -114.24560547 153.66113281 C-114.25553528 153.00346924 -114.26546509 152.34580566 -114.2756958 151.66821289 C-114.30478202 149.50329311 -114.31851814 147.33866666 -114.32958984 145.17358398 C-114.3352446 144.42940405 -114.34089935 143.68522411 -114.34672546 142.91849327 C-114.37665232 138.97771168 -114.39514512 135.03707534 -114.40380859 131.09619141 C-114.41475027 127.04878612 -114.46275788 123.00273604 -114.5197525 118.95575428 C-114.55722616 115.82336198 -114.56742808 112.69128842 -114.57048035 109.55869102 C-114.57648839 108.06806748 -114.59239201 106.57744648 -114.61885071 105.08704567 C-114.77019579 95.90403994 -114.13147636 88.63294025 -107.92333984 81.40405273 C-105.39041151 79.12166374 -102.84793502 77.15644175 -99.92333984 75.40405273 C-99.35786438 75.054888 -98.79238892 74.70572327 -98.20977783 74.34597778 C-95.1764729 73.0963721 -92.68978575 73.16448615 -89.41064453 73.17700195 C-88.76632477 73.1767099 -88.122005 73.17641785 -87.4581604 73.17611694 C-85.33703963 73.17750579 -83.21627395 73.19304558 -81.09521484 73.20874023 C-79.62119743 73.21247196 -78.14717752 73.21531818 -76.67315674 73.21731567 C-72.79989737 73.22493962 -68.9267888 73.24457738 -65.05358887 73.26672363 C-61.09873494 73.2872088 -57.14385657 73.2963231 -53.18896484 73.30639648 C-45.43368788 73.32782452 -37.67853502 73.36194541 -29.92333984 73.40405273 C-29.9344429 72.76227081 -29.94554596 72.12048889 -29.95698547 71.45925903 C-30.06812685 64.74275719 -30.14323356 58.02651915 -30.19799805 51.30932617 C-30.22304777 48.80693947 -30.25709727 46.30462525 -30.30053711 43.80249023 C-30.36160646 40.19293267 -30.38964658 36.58434754 -30.41162109 32.97436523 C-30.43742752 31.86666779 -30.46323395 30.75897034 -30.48982239 29.6177063 C-30.49280268 21.24992922 -28.72871913 14.51130085 -22.93305969 8.25588989 C-15.91138262 1.58956879 -9.41432679 -0.04682259 0 0 Z M-20.89624023 19.01806641 C-22.55359715 24.4817895 -22.37046854 29.90260843 -22.35693359 35.57983398 C-22.36217545 36.85956589 -22.3674173 38.13929779 -22.37281799 39.45780945 C-22.38172831 42.16191496 -22.37935176 44.86572485 -22.36938477 47.56982422 C-22.35792281 51.0128742 -22.37807259 54.45489426 -22.4073019 57.89780903 C-22.4302103 61.20853572 -22.42319001 64.51903025 -22.41943359 67.82983398 C-22.43066757 69.05511307 -22.44190155 70.28039215 -22.45347595 71.5428009 C-22.38645961 79.8381152 -21.22209138 86.25401048 -15.98583984 92.84155273 C-10.52834137 96.97602127 -5.22040323 96.64356644 1.34619141 96.57202148 C3.38981586 96.57769951 5.43343652 96.58490894 7.47705078 96.59350586 C10.68333972 96.59767656 13.88834729 96.59156109 17.09448242 96.55859375 C20.20011108 96.53157997 23.30308687 96.54852944 26.40869141 96.57202148 C27.3579097 96.55149216 28.30712799 96.53096283 29.28511047 96.5098114 C35.69191421 96.60218275 38.89163129 98.12268332 43.43963623 102.64570618 C43.97985413 103.22596054 44.52007202 103.8062149 45.07666016 104.40405273 C45.96224609 105.27030273 46.84783203 106.13655273 47.76025391 107.02905273 C48.52466797 107.81280273 49.28908203 108.59655273 50.07666016 109.40405273 C50.91326172 110.22905273 51.74986328 111.05405273 52.61181641 111.90405273 C53.44583984 112.72905273 54.27986328 113.55405273 55.13916016 114.40405273 C55.97576172 115.22905273 56.81236328 116.05405273 57.67431641 116.90405273 C60.07666016 119.40405273 60.07666016 119.40405273 62.01025391 121.96655273 C64.41070103 125.02537675 64.41070103 125.02537675 70.07666016 128.40405273 C70.40666016 118.17405273 70.73666016 107.94405273 71.07666016 97.40405273 C80.07666016 97.15405273 80.07666016 97.15405273 82.86181641 97.10620117 C88.62686404 96.87134717 93.29772269 95.75565426 98.07666016 92.40405273 C102.0606385 87.39854148 103.19701642 83.67306945 103.25366211 77.37548828 C103.26649734 76.13377365 103.27933258 74.89205902 103.29255676 73.61271667 C103.30072471 72.25540568 103.30816834 70.89809016 103.31494141 69.54077148 C103.31901693 68.85596018 103.32309246 68.17114887 103.32729149 67.46558571 C103.34813267 63.840667 103.36244262 60.21578593 103.37182617 56.59082031 C103.38288512 52.85492598 103.41728366 49.11962816 103.45699787 45.38394451 C103.48319539 42.50394109 103.49152073 39.62407914 103.49510765 36.74396706 C103.49996579 35.36729721 103.51155788 33.99063336 103.53014565 32.61408043 C103.89475092 22.63163157 103.89475092 22.63163157 99.07666016 14.40405273 C95.31595613 11.09105157 92.97751878 9.29133176 87.97970581 9.23669434 C87.12185989 9.22520355 86.26401398 9.21371277 85.38017273 9.20187378 C84.43680557 9.19447174 83.49343842 9.1870697 82.52148438 9.17944336 C81.5294249 9.16805328 80.53736542 9.15666321 79.51524353 9.14492798 C69.13018448 9.03424243 58.74441145 8.98683831 48.35888672 8.9440918 C43.43112349 8.9218196 38.50411792 8.88005639 33.57666016 8.82104492 C27.6285194 8.74994635 21.68109163 8.71325752 15.73254776 8.70097351 C13.46712703 8.69057397 11.20172781 8.6681525 8.93655014 8.63337708 C5.75959186 8.58713046 2.58542389 8.58517604 -0.59179688 8.59350586 C-1.52301865 8.56990997 -2.45424042 8.54631409 -3.41368103 8.52200317 C-11.70328808 8.62688598 -16.03775468 12.58076844 -20.89624023 19.01806641 Z M-103.33691406 89.11013794 C-107.00430504 95.11690227 -106.4819398 101.99900371 -106.41943359 108.81030273 C-106.42088882 110.08957642 -106.42234406 111.3688501 -106.42384338 112.68688965 C-106.42522097 115.38334985 -106.41277881 118.07927401 -106.38989258 120.77563477 C-106.36150894 124.21188586 -106.36425345 127.64724786 -106.37698269 131.08356476 C-106.38565591 134.38840173 -106.37047517 137.69298068 -106.35693359 140.99780273 C-106.35986923 142.22196899 -106.36280487 143.44613525 -106.36582947 144.70739746 C-106.34327117 155.0400975 -106.34327117 155.0400975 -101.54246521 163.91760254 C-97.34370919 167.58990374 -93.70920407 169.60459642 -88.15771484 169.81811523 C-86.95453613 169.87153076 -86.95453613 169.87153076 -85.72705078 169.92602539 C-84.71932617 169.96002441 -83.71160156 169.99402344 -82.67333984 170.02905273 C-79.45583984 170.15280273 -76.23833984 170.27655273 -72.92333984 170.40405273 C-72.59333984 180.30405273 -72.26333984 190.20405273 -71.92333984 200.40405273 C-66.57537764 196.39308108 -62.33242311 193.02940173 -58.04833984 188.15405273 C-57.02394587 187.01714927 -55.99787721 185.88175272 -54.97021484 184.74780273 C-54.46425781 184.18834961 -53.95830078 183.62889648 -53.43701172 183.05249023 C-41.95491713 170.54811884 -41.95491713 170.54811884 -37.97686768 170.26602173 C-36.78489777 170.25627823 -36.78489777 170.25627823 -35.56884766 170.24633789 C-34.21669159 170.23094467 -34.21669159 170.23094467 -32.83721924 170.21524048 C-31.37164581 170.20428848 -31.37164581 170.20428848 -29.87646484 170.19311523 C-27.813957 170.16503997 -25.7514571 170.13637546 -23.68896484 170.10717773 C-20.43245725 170.06595612 -17.17609705 170.02907508 -13.91943359 170.00268555 C-10.77979703 169.97502775 -7.64083894 169.92914738 -4.50146484 169.88061523 C-3.0480368 169.87573593 -3.0480368 169.87573593 -1.56524658 169.87075806 C4.62232293 169.75861253 9.20976297 169.04857005 13.93994141 164.68530273 C14.65730469 163.80358398 14.65730469 163.80358398 15.38916016 162.90405273 C15.88029297 162.31624023 16.37142578 161.72842773 16.87744141 161.12280273 C19.10035123 157.93687335 19.19946083 155.13832736 19.19018555 151.38183594 C19.19011002 150.36100418 19.19003448 149.34017242 19.18995667 148.28840637 C19.18479538 147.18832748 19.17963409 146.0882486 19.17431641 144.95483398 C19.17290146 143.82708054 19.17148651 142.69932709 19.17002869 141.53739929 C19.16442486 137.93042362 19.15187169 134.32350969 19.13916016 130.71655273 C19.13414565 128.27319425 19.12958266 125.8298348 19.12548828 123.38647461 C19.11445419 117.39231286 19.09771231 111.39818721 19.07666016 105.40405273 C18.27558838 105.39470703 17.4745166 105.38536133 16.64916992 105.37573242 C12.97856896 105.32166335 9.30919253 105.23808533 5.63916016 105.15405273 C4.37910156 105.13987305 3.11904297 105.12569336 1.82080078 105.11108398 C-8.45667021 104.84274271 -16.60544316 103.05458109 -23.92333984 95.40405273 C-26.61148424 90.92381208 -28.71726849 86.48941869 -29.92333984 81.40405273 C-37.98194968 81.26448094 -46.04004711 81.15814597 -54.09957027 81.0931797 C-57.84277751 81.06198452 -61.58515251 81.01973419 -65.32788086 80.95141602 C-68.94599538 80.88579255 -72.5633141 80.85025804 -76.18197823 80.83478928 C-77.55625486 80.82377895 -78.93049231 80.80227864 -80.30442619 80.76967239 C-89.97289641 80.54953274 -96.93459659 81.38298859 -103.33691406 89.11013794 Z " fill="#123E72" transform="translate(250.92333984375,139.595947265625)"/>
<path d="M0 0 C-0.33 1.98 -0.66 3.96 -1 6 C32.33 6 65.66 6 100 6 C100 6.33 100 6.66 100 7 C98.80032089 7.00364563 97.60064178 7.00729126 96.36460876 7.01104736 C85.04991184 7.04801426 73.73548664 7.10580578 62.42099667 7.18390274 C56.60430218 7.22338477 50.78775924 7.25556987 44.97094727 7.27099609 C39.3556959 7.28615763 33.74086118 7.32059493 28.12579536 7.36830902 C25.98527208 7.38312788 23.84468932 7.3910413 21.70411491 7.39188385 C18.70195144 7.39425366 15.70093923 7.4213355 12.69897461 7.45410156 C11.37619255 7.44655602 11.37619255 7.44655602 10.02668762 7.43885803 C3.48371213 7.54909256 -0.8158805 9.08003391 -5.7421875 13.59765625 C-9.21468478 18.08795446 -10.12268525 21.0171208 -10.17700195 26.61376953 C-10.18983719 27.76571808 -10.20267242 28.91766663 -10.21589661 30.10452271 C-10.22328354 31.35135834 -10.23067047 32.59819397 -10.23828125 33.8828125 C-10.25038887 35.80877762 -10.25038887 35.80877762 -10.26274109 37.77365112 C-10.27775911 40.49558377 -10.28759954 43.21749044 -10.29516602 45.93945312 C-10.30618966 49.40603448 -10.34054488 52.87196669 -10.38033772 56.33831978 C-10.41297276 59.66562301 -10.41729796 62.99286171 -10.42578125 66.3203125 C-10.45204338 68.17234787 -10.45204338 68.17234787 -10.47883606 70.0617981 C-10.46071868 77.31268004 -9.60058066 82.67197791 -6 89 C-5.67 89.66 -5.34 90.32 -5 91 C-5.9375 93.625 -5.9375 93.625 -7 96 C-7.99 96 -8.98 96 -10 96 C-10.66 95.01 -11.32 94.02 -12 93 C-12.9590625 92.62875 -12.9590625 92.62875 -13.9375 92.25 C-17.1950911 90.27570236 -17.79209655 87.50291999 -19 84 C-19 82.68 -19 81.36 -19 80 C-27.05917319 79.9916652 -35.11734293 80.015774 -43.17623043 80.0802784 C-46.91916827 80.10923986 -50.6614843 80.127401 -54.40454102 80.12011719 C-58.02306613 80.11348582 -61.64036667 80.13622047 -65.25863838 80.17855453 C-66.6327433 80.18961889 -68.00697344 80.19044648 -69.38108635 80.18042374 C-77.04196162 80.13174892 -83.16199581 80.36201863 -89.31382751 85.27949524 C-95.36948832 91.45845578 -94.4386254 99.17314362 -94.3984375 107.30859375 C-94.40130768 108.58928238 -94.40417786 109.86997101 -94.40713501 111.18946838 C-94.41154016 113.89180441 -94.40518745 116.59384151 -94.39111328 119.29614258 C-94.37403915 122.74023776 -94.38386202 126.1836305 -94.40183067 129.62769985 C-94.41535193 132.9380523 -94.40585091 136.24822142 -94.3984375 139.55859375 C-94.40451019 140.78589706 -94.41058289 142.01320038 -94.4168396 143.2776947 C-94.36286265 149.88762939 -93.93540285 155.03275667 -91 161 C-87.09401497 164.80583157 -83.23191878 167.18797509 -77.7421875 167.37890625 C-76.95199219 167.41306641 -76.16179687 167.44722656 -75.34765625 167.48242188 C-74.53167969 167.50884766 -73.71570313 167.53527344 -72.875 167.5625 C-64.23986486 167.88006757 -64.23986486 167.88006757 -62 169 C-62 178.57 -62 188.14 -62 198 C-62.33 198 -62.66 198 -63 198 C-63.33 189.09 -63.66 180.18 -64 171 C-65.65 171 -67.3 171 -69 171 C-69.20882812 171.63679687 -69.41765625 172.27359375 -69.6328125 172.9296875 C-71 175 -71 175 -73.6171875 175.8203125 C-82.54401847 176.65519597 -88.5925563 175.10543812 -96 170 C-100.38468987 166.17057653 -102.76451799 161.64376147 -103.28088379 155.84651184 C-103.29453979 154.66199936 -103.3081958 153.47748688 -103.32226562 152.25708008 C-103.33219543 151.5994165 -103.34212524 150.94175293 -103.35235596 150.26416016 C-103.38144217 148.09924037 -103.3951783 145.93461393 -103.40625 143.76953125 C-103.41190475 143.02535131 -103.41755951 142.28117138 -103.42338562 141.51444054 C-103.45331248 137.57365894 -103.47180528 133.6330226 -103.48046875 129.69213867 C-103.49141042 125.64473339 -103.53941804 121.5986833 -103.59641266 117.55170155 C-103.63388632 114.41930925 -103.64408823 111.28723569 -103.6471405 108.15463829 C-103.65314855 106.66401474 -103.66905217 105.17339375 -103.69551086 103.68299294 C-103.84685595 94.4999872 -103.20813652 87.22888752 -97 80 C-94.46707167 77.717611 -91.92459517 75.75238901 -89 74 C-88.43452454 73.65083527 -87.86904907 73.30167053 -87.28643799 72.94192505 C-84.25313305 71.69231937 -81.76644591 71.76043341 -78.48730469 71.77294922 C-77.84298492 71.77265717 -77.19866516 71.77236511 -76.53482056 71.77206421 C-74.41369979 71.77345306 -72.2929341 71.78899284 -70.171875 71.8046875 C-68.69785758 71.80841922 -67.22383768 71.81126544 -65.74981689 71.81326294 C-61.87655753 71.82088689 -58.00344895 71.84052465 -54.13024902 71.8626709 C-50.1753951 71.88315606 -46.22051673 71.89227036 -42.265625 71.90234375 C-34.51034804 71.92377179 -26.75519518 71.95789268 -19 72 C-19.01110306 71.35821808 -19.02220612 70.71643616 -19.03364563 70.0552063 C-19.14478701 63.33870445 -19.21989372 56.62246641 -19.2746582 49.90527344 C-19.29970793 47.40288674 -19.33375742 44.90057252 -19.37719727 42.3984375 C-19.43826661 38.78887993 -19.46630674 35.18029481 -19.48828125 31.5703125 C-19.51408768 30.46261505 -19.5398941 29.3549176 -19.56648254 28.21365356 C-19.56952746 19.6644141 -17.53349049 13.10595543 -11.90234375 6.5625 C-11.25394531 6.046875 -10.60554688 5.53125 -9.9375 5 C-9.28652344 4.46375 -8.63554687 3.9275 -7.96484375 3.375 C-3.14204545 0 -3.14204545 0 0 0 Z " fill="#0B376B" transform="translate(240,141)"/>
<path d="M0 0 C0.82966278 0.00247742 1.65932556 0.00495483 2.51412964 0.00750732 C3.38742416 0.00239639 4.26071869 -0.00271454 5.16047668 -0.00798035 C8.05715727 -0.02191952 10.95360108 -0.02091632 13.85031128 -0.01861572 C15.85808908 -0.02250032 17.86586606 -0.0268345 19.87364197 -0.03160095 C24.08618837 -0.03907251 28.29865098 -0.03876516 32.51119995 -0.0335083 C37.9164561 -0.02771292 43.32136969 -0.04464185 48.72656918 -0.06785297 C52.87434402 -0.08256656 57.02203592 -0.08346525 61.16983223 -0.08034325 C63.16298666 -0.08085767 65.1561456 -0.08611803 67.14927483 -0.09615517 C69.93388158 -0.10845608 72.71781536 -0.10176616 75.50241089 -0.09014893 C76.33004944 -0.09779266 77.15768799 -0.1054364 78.01040649 -0.11331177 C83.63051613 -0.0613397 83.63051613 -0.0613397 85.82384586 1.64149189 C87.07296753 3.28216553 87.07296753 3.28216553 86.82296753 5.90716553 C86.07296753 8.28216553 86.07296753 8.28216553 85.07296753 9.28216553 C82.22279455 9.38804342 79.39672385 9.42894287 76.54586792 9.4274292 C75.20447502 9.43246712 75.20447502 9.43246712 73.83598328 9.43760681 C70.86418285 9.4471471 67.89243858 9.44906145 64.92062378 9.45013428 C62.86418128 9.45334468 60.80773901 9.45670859 58.751297 9.46022034 C54.43444285 9.46621929 50.11760875 9.46805945 45.80075073 9.46746826 C40.25756423 9.46736659 34.71450568 9.48102086 29.17134953 9.49824047 C24.922403 9.50933563 20.67348765 9.51138824 16.42452812 9.51085854 C14.38031002 9.51204233 12.33609121 9.51648631 10.29188728 9.5241909 C7.43765314 9.53394096 4.58369991 9.5311326 1.72946167 9.52508545 C0.45220215 9.53351471 0.45220215 9.53351471 -0.8508606 9.54211426 C-6.69871718 9.51048082 -6.69871718 9.51048082 -8.92703247 7.28216553 C-8.29241756 0.93601637 -6.1485766 0.05764483 0 0 Z " fill="#0F3C72" transform="translate(167.92703247070313,271.71783447265625)"/>
<path d="M0 0 C0.84058456 0.00404846 1.68116913 0.00809692 2.54722595 0.01226807 C3.43188034 0.00876343 4.31653473 0.00525879 5.22799683 0.00164795 C8.16195954 -0.00717853 11.09568252 -0.00131699 14.02964783 0.00543213 C16.06224107 0.00408574 18.09483401 0.00214543 20.12742615 -0.00036621 C24.39125122 -0.00331872 28.65499262 0.00098424 32.91880798 0.01031494 C38.39359956 0.02170952 43.86819506 0.01515073 49.34297943 0.00317001 C53.54132066 -0.00404516 57.73961515 -0.00176223 61.93795776 0.0034256 C63.95705183 0.00476304 65.97615009 0.00311108 67.99523926 -0.00153351 C70.81346435 -0.00659312 73.63136861 0.00110351 76.4495697 0.01226807 C77.29015427 0.0082196 78.13073883 0.00417114 78.99679565 0 C84.76986991 0.04252921 84.76986991 0.04252921 86.99839783 2.27105713 C87.24839783 4.77105713 87.24839783 4.77105713 86.99839783 7.27105713 C84.3714003 9.89805466 82.4981323 9.51166233 78.92222595 9.53100586 C78.0707196 9.52538635 77.21921326 9.51976685 76.34190369 9.51397705 C75.44588943 9.5158754 74.54987518 9.51777374 73.62670898 9.51972961 C70.65546509 9.52344411 67.68446387 9.5127244 64.71324158 9.50152588 C62.65583322 9.50033444 60.59842431 9.49988084 58.54101562 9.50013733 C54.22591251 9.49857135 49.91089222 9.49027232 45.59580994 9.47686768 C40.0514627 9.45986703 34.50720651 9.45605357 28.96283627 9.45681286 C24.71392948 9.45654157 20.46504278 9.45106719 16.21614265 9.44381142 C14.17110407 9.44061881 12.1260632 9.43865597 10.08102226 9.43791771 C7.22914079 9.43576099 4.3773579 9.42703164 1.52549744 9.4163208 C0.67196686 9.41677399 -0.18156372 9.41722717 -1.06095886 9.41769409 C-6.88712798 9.38553133 -6.88712798 9.38553133 -8.00160217 8.27105713 C-8.18910217 5.33355713 -8.18910217 5.33355713 -8.00160217 2.27105713 C-5.39016859 -0.34037645 -3.55656979 0.02620062 0 0 Z " fill="#063670" transform="translate(253.00160217285156,171.72894287109375)"/>
<path d="M0 0 C1.13457642 -0.00630432 2.26915283 -0.01260864 3.43811035 -0.019104 C5.28342346 -0.01303131 5.28342346 -0.01303131 7.16601562 -0.00683594 C9.0524176 -0.00970612 9.0524176 -0.00970612 10.97692871 -0.01263428 C13.64019438 -0.01399743 16.30309492 -0.011291 18.96630859 -0.00195312 C22.38297957 0.00944154 25.79933635 0.00288159 29.21599579 -0.00909805 C32.47018042 -0.01805547 35.7243269 -0.01178722 38.97851562 -0.00683594 C40.20872437 -0.0108844 41.43893311 -0.01493286 42.7064209 -0.019104 C44.40828552 -0.00964752 44.40828552 -0.00964752 46.14453125 0 C47.14665649 0.00159119 48.14878174 0.00318237 49.18127441 0.00482178 C51.57226562 0.25878906 51.57226562 0.25878906 53.57226562 2.25878906 C53.88476562 5.25878906 53.88476562 5.25878906 53.57226562 8.25878906 C50.20934516 10.50073604 49.07321678 10.51493276 45.13867188 10.53344727 C44.02741943 10.54297928 42.91616699 10.55251129 41.77124023 10.56233215 C40.57120361 10.56142075 39.37116699 10.56050934 38.13476562 10.55957031 C36.28733765 10.565998 36.28733765 10.565998 34.40258789 10.57255554 C31.1288843 10.57977542 27.8553641 10.57666912 24.58166504 10.57098389 C22.57418562 10.57128877 20.5670007 10.58133177 18.55957031 10.5949707 C14.7094936 10.61939531 10.85990995 10.62362868 7.00976562 10.62207031 C5.809729 10.63128006 4.60969238 10.64048981 3.37329102 10.64997864 C2.26203857 10.64374985 1.15078613 10.63752106 0.00585938 10.63110352 C-1.46282593 10.63204765 -1.46282593 10.63204765 -2.96118164 10.63301086 C-5.42773438 10.25878906 -5.42773438 10.25878906 -7.27905273 8.89567566 C-8.42773438 7.25878906 -8.42773438 7.25878906 -8.24023438 4.69628906 C-6.66570484 -0.02729953 -4.574958 0.00726417 0 0 Z " fill="#07376F" transform="translate(255.427734375,195.7412109375)"/>
<path d="M0 0 C1.17469345 -0.00637985 2.3493869 -0.0127597 3.55967712 -0.01933289 C5.4783535 -0.02100212 5.4783535 -0.02100212 7.43579102 -0.02270508 C8.73919937 -0.02603348 10.04260773 -0.02936188 11.38551331 -0.03279114 C14.14878161 -0.03878833 16.91201861 -0.04063044 19.67529297 -0.04003906 C23.220882 -0.03993742 26.76627084 -0.05358863 30.3118124 -0.07081127 C33.68647526 -0.08458646 37.06110036 -0.08401955 40.43579102 -0.08520508 C42.35143105 -0.09598335 42.35143105 -0.09598335 44.30577087 -0.10697937 C46.07253929 -0.10236443 46.07253929 -0.10236443 47.875 -0.09765625 C49.43600685 -0.09979378 49.43600685 -0.09979378 51.02854919 -0.10197449 C53.50219727 0.14526367 53.50219727 0.14526367 55.50219727 2.14526367 C55.17248247 5.4424116 54.87951337 6.76794757 52.50219727 9.14526367 C50.11120605 9.39923096 50.11120605 9.39923096 47.07446289 9.40405273 C45.93988647 9.41035706 44.80531006 9.41666138 43.63635254 9.42315674 C41.79103943 9.41708405 41.79103943 9.41708405 39.90844727 9.41088867 C38.65084595 9.41280212 37.39324463 9.41471558 36.09753418 9.41668701 C33.43426851 9.41805016 30.77136797 9.41534373 28.1081543 9.40600586 C24.69148332 9.39461119 21.27512654 9.40117115 17.8584671 9.41315079 C14.60428247 9.42210821 11.35013599 9.41583995 8.09594727 9.41088867 C6.86573853 9.41493713 5.63552979 9.4189856 4.36804199 9.42315674 C2.66617737 9.41370026 2.66617737 9.41370026 0.92993164 9.40405273 C-0.0721936 9.40246155 -1.07431885 9.40087036 -2.10681152 9.39923096 C-4.49780273 9.14526367 -4.49780273 9.14526367 -6.49780273 7.14526367 C-6.68530273 4.08276367 -6.68530273 4.08276367 -6.49780273 1.14526367 C-4.75727141 -0.59526765 -2.36777271 0.00867938 0 0 Z " fill="#103C70" transform="translate(166.497802734375,247.854736328125)"/>
<path d="M0 0 C0.99 0.33 1.98 0.66 3 1 C3 10.24 3 19.48 3 29 C3.66 29 4.32 29 5 29 C4.125 33.75 4.125 33.75 3 36 C2.34 36 1.68 36 1 36 C1 36.99 1 37.98 1 39 C1.66 39 2.32 39 3 39 C2.61479436 41.53910197 2.29902057 42.72751123 0.37109375 44.484375 C-1.41927083 45.65625 -3.20963542 46.828125 -5 48 C-5.96849123 38.73655058 -6.12190023 29.55678381 -6.0625 20.25 C-6.05746857 18.85937663 -6.0529086 17.46875148 -6.04882812 16.078125 C-6.03716347 12.71870295 -6.02079614 9.35937581 -6 6 C-9.3 6 -12.6 6 -16 6 C-16 5.67 -16 5.34 -16 5 C-11.545 4.505 -11.545 4.505 -7 4 C-7 3.01 -7 2.02 -7 1 C-4.49484216 -0.25257892 -2.77924105 -0.13557273 0 0 Z " fill="#1A4579" transform="translate(176,311)"/>
<path d="M0 0 C11.69998437 -0.04626739 23.3999471 -0.08184065 35.1000042 -0.10362434 C40.5323598 -0.11407752 45.96465298 -0.12826461 51.39697266 -0.15087891 C56.63594301 -0.1725527 61.87485319 -0.18455706 67.1138649 -0.18975449 C69.11622185 -0.19346009 71.11857538 -0.20069583 73.12090683 -0.21146011 C75.91775473 -0.22590247 78.7143515 -0.227981 81.51123047 -0.22705078 C82.34560638 -0.23424133 83.1799823 -0.24143188 84.03964233 -0.24884033 C89.77189568 -0.22810432 89.77189568 -0.22810432 92 2 C92.25 4.5 92.25 4.5 92 7 C89.37300247 9.62699753 87.49973447 9.2406052 83.92382812 9.25994873 C83.07232178 9.25432922 82.22081543 9.24870972 81.34350586 9.24291992 C80.44749161 9.24481827 79.55147736 9.24671661 78.62831116 9.24867249 C75.65706726 9.25238698 72.68606604 9.24166727 69.71484375 9.23046875 C67.65743539 9.22927731 65.60002648 9.22882371 63.5426178 9.2290802 C59.22751468 9.22751422 54.91249439 9.21921519 50.59741211 9.20581055 C45.05306488 9.1888099 39.50880868 9.18499644 33.96443844 9.18575573 C29.71553165 9.18548444 25.46664495 9.18001006 21.21774483 9.17275429 C19.17270625 9.16956168 17.12766538 9.16759884 15.08262444 9.16686058 C12.23074296 9.16470386 9.37896007 9.15597451 6.52709961 9.14526367 C5.67356903 9.14571686 4.82003845 9.14617004 3.94064331 9.14663696 C-1.8855258 9.1144742 -1.8855258 9.1144742 -3 8 C-3.04080783 6.00041636 -3.04254356 3.99954746 -3 2 C-2.01 2 -1.02 2 0 2 C0.33 3.65 0.66 5.3 1 7 C30.04 7 59.08 7 89 7 C89 5.35 89 3.7 89 2 C59.63 1.67 30.26 1.34 0 1 C0 0.67 0 0.34 0 0 Z " fill="#12355F" transform="translate(248,172)"/>
<path d="M0 0 C1.13457642 -0.00630432 2.26915283 -0.01260864 3.43811035 -0.019104 C5.28342346 -0.01303131 5.28342346 -0.01303131 7.16601562 -0.00683594 C9.0524176 -0.00970612 9.0524176 -0.00970612 10.97692871 -0.01263428 C13.64019438 -0.01399743 16.30309492 -0.011291 18.96630859 -0.00195312 C22.38297957 0.00944154 25.79933635 0.00288159 29.21599579 -0.00909805 C32.47018042 -0.01805547 35.7243269 -0.01178722 38.97851562 -0.00683594 C40.20872437 -0.0108844 41.43893311 -0.01493286 42.7064209 -0.019104 C44.40828552 -0.00964752 44.40828552 -0.00964752 46.14453125 0 C47.14665649 0.00159119 48.14878174 0.00318237 49.18127441 0.00482178 C51.57226562 0.25878906 51.57226562 0.25878906 53.57226562 2.25878906 C53.69726562 5.38378906 53.69726562 5.38378906 53.57226562 8.25878906 C52.91226563 8.58878906 52.25226563 8.91878906 51.57226562 9.25878906 C51.07726562 6.28878906 51.07726562 6.28878906 50.57226562 3.25878906 C32.42226563 3.25878906 14.27226562 3.25878906 -4.42773438 3.25878906 C-4.42773438 4.24878906 -4.42773438 5.23878906 -4.42773438 6.25878906 C-3.76773438 6.58878906 -3.10773438 6.91878906 -2.42773438 7.25878906 C-2.42773438 7.91878906 -2.42773438 8.57878906 -2.42773438 9.25878906 C15.06226563 9.25878906 32.55226563 9.25878906 50.57226562 9.25878906 C50.57226562 9.58878906 50.57226562 9.91878906 50.57226562 10.25878906 C43.32264908 10.3282883 36.07310432 10.38159969 28.82322216 10.41422558 C25.45681685 10.42988417 22.0906394 10.45112527 18.72436523 10.48510742 C14.85459313 10.52140655 10.98514537 10.53849656 7.11523438 10.55175781 C5.3010627 10.5749836 5.3010627 10.5749836 3.45024109 10.59867859 C2.32930557 10.59890518 1.20837006 10.59913177 0.0534668 10.59936523 C-0.93470535 10.60602707 -1.9228775 10.6126889 -2.94099426 10.61955261 C-5.42773438 10.25878906 -5.42773438 10.25878906 -7.2820282 8.8976593 C-8.42773438 7.25878906 -8.42773438 7.25878906 -8.24023438 4.69628906 C-6.66570484 -0.02729953 -4.574958 0.00726417 0 0 Z " fill="#416389" transform="translate(255.427734375,195.7412109375)"/>
<path d="M0 0 C0.33 0 0.66 0 1 0 C1 15.84 1 31.68 1 48 C-19.79 48 -40.58 48 -62 48 C-62 47.34 -62 46.68 -62 46 C-42.2 45.67 -22.4 45.34 -2 45 C-1.33486225 39.01376025 -0.81871852 33.23730356 -0.68359375 27.24609375 C-0.66281265 26.45977066 -0.64203156 25.67344757 -0.62062073 24.86329651 C-0.55601412 22.38810693 -0.49666054 19.9128251 -0.4375 17.4375 C-0.39422989 15.74413165 -0.35061313 14.05077213 -0.30664062 12.35742188 C-0.20042609 8.23837218 -0.09891753 4.11923113 0 0 Z " fill="#C4D7E7" transform="translate(220,165)"/>
<path d="M0 0 C2.0625 0.4375 2.0625 0.4375 4 1 C3.34 1.66 2.68 2.32 2 3 C2 3.99 2 4.98 2 6 C31.7 6 61.4 6 92 6 C92 4.35 92 2.7 92 1 C90.68 0.67 89.36 0.34 88 0 C89.65 0 91.3 0 93 0 C93.625 2.875 93.625 2.875 94 6 C91.37661991 8.62338009 89.50672534 8.24503046 85.93493652 8.27105713 C85.08500122 8.26700867 84.23506592 8.26296021 83.359375 8.25878906 C82.46496704 8.2622937 81.57055908 8.26579834 80.64904785 8.26940918 C77.6826204 8.27823594 74.71643002 8.27237401 71.75 8.265625 C69.69498651 8.26697138 67.63997333 8.26891168 65.58496094 8.27142334 C61.27405775 8.27437588 56.96323733 8.27007276 52.65234375 8.26074219 C47.11701876 8.24934761 41.5818877 8.25590638 36.04656982 8.26788712 C31.80190562 8.27510219 27.55728765 8.27281941 23.31262207 8.26763153 C21.27119931 8.26629406 19.2297724 8.26794615 17.18835449 8.27259064 C14.33899763 8.27765007 11.48995812 8.26995386 8.640625 8.25878906 C7.7906897 8.26283752 6.94075439 8.26688599 6.06506348 8.27105713 C0.22852785 8.22852785 0.22852785 8.22852785 -2 6 C-1.44444444 1.44444444 -1.44444444 1.44444444 0 0 Z " fill="#103763" transform="translate(161,273)"/>
<path d="M0 0 C0.495 0.99 0.495 0.99 1 2 C1.99 2 2.98 2 4 2 C3.51171875 8.0546875 3.51171875 8.0546875 3 10 C2.01 10.66 1.02 11.32 0 12 C0.29296875 9.94921875 0.5859375 7.8984375 0.87890625 5.84765625 C0.91886719 5.23792969 0.95882812 4.62820312 1 4 C-0.83885262 2.16114738 -3.41954877 2.87998921 -5.86607361 2.87557983 C-7.1299868 2.88097275 -7.1299868 2.88097275 -8.41943359 2.88647461 C-9.30233566 2.88632858 -10.18523773 2.88618256 -11.09489441 2.8860321 C-14.0294333 2.88673179 -16.96390962 2.8945284 -19.8984375 2.90234375 C-21.93006353 2.9042082 -23.96169001 2.90563198 -25.99331665 2.90663147 C-31.35487091 2.91045838 -36.71639829 2.9202877 -42.07794189 2.93133545 C-47.53112425 2.94153133 -52.98431088 2.94612903 -58.4375 2.95117188 C-68.02209439 2.96076153 -77.60667167 2.975244 -87.19125366 2.99327087 C-89.46083334 2.99728067 -91.73041678 3 -94 3 C-93.67 2.34 -93.34 1.68 -93 1 C-46.965 0.505 -46.965 0.505 0 0 Z " fill="#E8F7FA" transform="translate(338,170)"/>
<path d="M0 0 C5.75 1.875 5.75 1.875 8 3 C10.84208026 3.15706331 13.66337307 3.2584957 16.5078125 3.31640625 C17.34843231 3.33718735 18.18905212 3.35796844 19.05514526 3.37937927 C21.74501235 3.44485439 24.43497843 3.5037502 27.125 3.5625 C28.94662489 3.60568716 30.76823971 3.64930152 32.58984375 3.69335938 C37.05979394 3.80053368 41.52984386 3.90180685 46 4 C46 4.33 46 4.66 46 5 C44.8039917 5.0093457 43.6079834 5.01869141 42.37573242 5.02832031 C37.94175862 5.06816814 33.50848252 5.13391191 29.07495117 5.20751953 C27.15544593 5.23575948 25.23582375 5.25695895 23.31616211 5.27099609 C20.55782062 5.29238411 17.80088962 5.33901133 15.04296875 5.390625 C14.18350143 5.39185364 13.32403412 5.39308228 12.43852234 5.39434814 C7.67645047 5.3861105 7.67645047 5.3861105 3.93481445 8.03808594 C3.4720813 9.0092334 3.4720813 9.0092334 3 10 C-0.39192363 9.40716379 -2.2107757 8.23256811 -4.75 5.9375 C-5.36359375 5.38964844 -5.9771875 4.84179688 -6.609375 4.27734375 C-7.06828125 3.85582031 -7.5271875 3.43429688 -8 3 C-7.01 2.34 -6.02 1.68 -5 1 C-4.67 2.32 -4.34 3.64 -4 5 C-2.68 4.34 -1.36 3.68 0 3 C0 2.01 0 1.02 0 0 Z " fill="#224976" transform="translate(234,232)"/>
<path d="M0 0 C0.66 0 1.32 0 2 0 C2 0.66 2 1.32 2 2 C2.598125 2.2475 3.19625 2.495 3.8125 2.75 C6.28777159 4.16444091 7.33430804 5.72860188 9 8 C9.66 8 10.32 8 11 8 C11 8.66 11 9.32 11 10 C10.34 10 9.68 10 9 10 C9 10.66 9 11.32 9 12 C9.99 12.33 10.98 12.66 12 13 C13.1875 15.5625 13.1875 15.5625 14 18 C13.34 18.33 12.68 18.66 12 19 C9.31002868 16.69235963 6.65101469 14.35224201 4 12 C3.37222656 11.46375 2.74445313 10.9275 2.09765625 10.375 C0.4375 8.875 0.4375 8.875 -2 6 C-1.94162863 3.37328813 -1.88893674 1.88893674 0 0 Z " fill="#0A366C" transform="translate(299,250)"/>
<path d="M0 0 C2.31 1.98 4.62 3.96 7 6 C6.67 7.32 6.34 8.64 6 10 C6.33 10.66 6.66 11.32 7 12 C6.34 12 5.68 12 5 12 C5.33 13.65 5.66 15.3 6 17 C3.69 15.02 1.38 13.04 -1 11 C-0.01 10.34 0.98 9.68 2 9 C1.67 7.68 1.34 6.36 1 5 C-0.65 5 -2.3 5 -4 5 C-3.34 4.67 -2.68 4.34 -2 4 C-2 3.34 -2 2.68 -2 2 C-1.34 2 -0.68 2 0 2 C0 1.34 0 0.68 0 0 Z " fill="#0A3B6F" transform="translate(310,258)"/>
<path d="M0 0 C0.99 0 1.98 0 3 0 C3 0.66 3 1.32 3 2 C2.34 2 1.68 2 1 2 C1.33 2.99 1.66 3.98 2 5 C3.32 5.66 4.64 6.32 6 7 C3.69 9.31 1.38 11.62 -1 14 C-1.33 12.68 -1.66 11.36 -2 10 C-2.66 10 -3.32 10 -4 10 C-3.52449439 8.51965236 -3.04448784 7.04074979 -2.5625 5.5625 C-2.29566406 4.73878906 -2.02882812 3.91507812 -1.75390625 3.06640625 C-1 1 -1 1 0 0 Z " fill="#184273" transform="translate(192,327)"/>
<path d="M0 0 C0.99 0.33 1.98 0.66 3 1 C2.67 1.99 2.34 2.98 2 4 C1.8470353 6.51054905 1.74304822 8.99888525 1.68359375 11.51171875 C1.66281265 12.23994339 1.64203156 12.96816803 1.62062073 13.71846008 C1.55531254 16.04137875 1.49632763 18.36440906 1.4375 20.6875 C1.39429695 22.26368335 1.35068208 23.83985548 1.30664062 25.41601562 C1.1996504 29.27722975 1.09833039 33.13855603 1 37 C2.32 37.33 3.64 37.66 5 38 C3.35 39.32 1.7 40.64 0 42 C0 28.14 0 14.28 0 0 Z " fill="#0F3462" transform="translate(171,317)"/>
<path d="M0 0 C0 0.66 0 1.32 0 2 C-0.66 2 -1.32 2 -2 2 C-2 2.66 -2 3.32 -2 4 C-9.06608191 4.13794954 -15.97360585 3.74805717 -23 3 C-23 2.67 -23 2.34 -23 2 C-22.04738281 1.95101562 -21.09476562 1.90203125 -20.11328125 1.8515625 C-18.85902344 1.77679688 -17.60476563 1.70203125 -16.3125 1.625 C-14.45044922 1.52058594 -14.45044922 1.52058594 -12.55078125 1.4140625 C-0.10165663 -0.0376506 -0.10165663 -0.0376506 0 0 Z " fill="#214879" transform="translate(350,234)"/>
<path d="M0 0 C0.99 0.33 1.98 0.66 3 1 C2.67854004 1.72018311 2.35708008 2.44036621 2.02587891 3.18237305 C1.00361571 5.99006926 0.69520443 8.11361299 0.5859375 11.08203125 C0.54726563 12.01337891 0.50859375 12.94472656 0.46875 13.90429688 C0.4378125 14.86400391 0.406875 15.82371094 0.375 16.8125 C0.33632813 17.79154297 0.29765625 18.77058594 0.2578125 19.77929688 C0.16389184 22.18601374 0.07821799 24.59273012 0 27 C-0.33 27 -0.66 27 -1 27 C-1.02886537 22.68751391 -1.04675255 18.37505238 -1.0625 14.0625 C-1.07087891 12.83080078 -1.07925781 11.59910156 -1.08789062 10.33007812 C-1.09111328 9.16025391 -1.09433594 7.99042969 -1.09765625 6.78515625 C-1.10289307 5.70113525 -1.10812988 4.61711426 -1.11352539 3.50024414 C-1 1 -1 1 0 0 Z " fill="#13355F" transform="translate(322,238)"/>
<path d="M0 0 C3 0.3125 3 0.3125 6 1 C6.33 1.66 6.66 2.32 7 3 C6.67 3.66 6.34 4.32 6 5 C3 5 0 5 -3 5 C-1.125 1.125 -1.125 1.125 0 0 Z " fill="#09356A" transform="translate(230,146)"/>
<path d="M0 0 C0.66 0.33 1.32 0.66 2 1 C1.7834375 1.7734375 1.7834375 1.7734375 1.5625 2.5625 C0.90240964 5.16543422 0.90240964 5.16543422 0.6875 8.5625 C0 12 0 12 -2.0625 13.9375 C-2.701875 14.288125 -3.34125 14.63875 -4 15 C-4.66 14.67 -5.32 14.34 -6 14 C-5.73445313 13.49210937 -5.46890625 12.98421875 -5.1953125 12.4609375 C-3.10022511 8.37781098 -1.32380814 4.4126938 0 0 Z " fill="#E3F3F8" transform="translate(279,293)"/>
<path d="M0 0 C0.33 0.99 0.66 1.98 1 3 C1.66 3.33 2.32 3.66 3 4 C3.33 4.33 3.66 4.66 4 5 C5.66617115 5.04063832 7.33388095 5.042721 9 5 C4.25 9 4.25 9 2 9 C-1.11450382 4.84732824 -1.11450382 4.84732824 -0.6875 1.6875 C-0.460625 1.130625 -0.23375 0.57375 0 0 Z " fill="#193F71" transform="translate(149,216)"/>
<path d="M0 0 C0.99 0.99 1.98 1.98 3 3 C2.34 3 1.68 3 1 3 C1.33 4.65 1.66 6.3 2 8 C-0.31 6.02 -2.62 4.04 -5 2 C-4.01 1.67 -3.02 1.34 -2 1 C-1.34 0.67 -0.68 0.34 0 0 Z " fill="#254A78" transform="translate(314,267)"/>
<path d="M0 0 C1.67542976 0.28604898 3.34385343 0.61781233 5 1 C4.67 1.66 4.34 2.32 4 3 C3.34 3 2.68 3 2 3 C1.67 4.65 1.34 6.3 1 8 C0.34 7.67 -0.32 7.34 -1 7 C-1.04254356 5.00045254 -1.04080783 2.99958364 -1 1 C-0.67 0.67 -0.34 0.34 0 0 Z " fill="#153E6E" transform="translate(161,248)"/>
<path d="M0 0 C1.13732426 3.40401948 0.83989957 5.77456664 0.0625 9.25 C-0.13214844 10.14203125 -0.32679688 11.0340625 -0.52734375 11.953125 C-0.68332031 12.62859375 -0.83929688 13.3040625 -1 14 C-3 11 -3 11 -2.75 7.5625 C-2.13121575 4.6232748 -1.52580857 2.54301429 0 0 Z " fill="#214571" transform="translate(224,153)"/>
<path d="M0 0 C1.5 1.25 1.5 1.25 3 3 C3 4.32 3 5.64 3 7 C1.68 7 0.36 7 -1 7 C-1.33 5.35 -1.66 3.7 -2 2 C-1.34 2 -0.68 2 0 2 C0 1.34 0 0.68 0 0 Z " fill="#05366F" transform="translate(317,268)"/>
<path d="M0 0 C0.66 0.33 1.32 0.66 2 1 C0.03681826 4.53372712 -2.04070881 7.24479785 -5 10 C-4.49701212 5.59885603 -2.91227269 3.28804981 0 0 Z " fill="#D7E6F1" transform="translate(151,225)"/>
<path d="M0 0 C0 3.20395416 -0.74335022 5.09399739 -2 8 C-3.32 8 -4.64 8 -6 8 C-4.55746343 4.63408134 -2.66735273 2.48952921 0 0 Z " fill="#EEF7F9" transform="translate(156,222)"/>
<path d="M0 0 C0.66 0.33 1.32 0.66 2 1 C2.625 4.0625 2.625 4.0625 3 7 C2.01 7.33 1.02 7.66 0 8 C-1 7 -1 7 -1.125 4 C-1 1 -1 1 0 0 Z " fill="#1B3D66" transform="translate(246,173)"/>
<path d="M0 0 C5.75 -0.125 5.75 -0.125 8 1 C7.67 1.66 7.34 2.32 7 3 C5.824375 2.9690625 5.824375 2.9690625 4.625 2.9375 C2.01885039 2.81315937 2.01885039 2.81315937 0 4 C0 2.68 0 1.36 0 0 Z " fill="#E9F9FC" transform="translate(279,245)"/>
<path d="M0 0 C0.66 0 1.32 0 2 0 C2.185625 1.2065625 2.185625 1.2065625 2.375 2.4375 C2.58125 3.283125 2.7875 4.12875 3 5 C3.66 5.33 4.32 5.66 5 6 C5 6.66 5 7.32 5 8 C3 7 1 6 -1 5 C-0.67 3.35 -0.34 1.7 0 0 Z " fill="#DDEBF3" transform="translate(243,175)"/>
<path d="M0 0 C-2.97 2.475 -2.97 2.475 -6 5 C-6.33 3.68 -6.66 2.36 -7 1 C-3.375 -1.125 -3.375 -1.125 0 0 Z " fill="#D3E2EB" transform="translate(205,315)"/>
<path d="M0 0 C0 0.66 0 1.32 0 2 C-2.3125 4.1875 -2.3125 4.1875 -5 6 C-5.99 5.67 -6.98 5.34 -8 5 C-2.25 0 -2.25 0 0 0 Z " fill="#1F446E" transform="translate(213,309)"/>
<path d="M0 0 C3.83736322 0.95934081 4.59660228 1.23609263 7 4 C6.67 4.99 6.34 5.98 6 7 C4.02 4.69 2.04 2.38 0 0 Z " fill="#DAEAF4" transform="translate(302,249)"/>
<path d="M0 0 C0.99 0.99 1.98 1.98 3 3 C1 5 1 5 -1.625 5.125 C-2.40875 5.08375 -3.1925 5.0425 -4 5 C-3.34 4.67 -2.68 4.34 -2 4 C-2 3.34 -2 2.68 -2 2 C-1.34 2 -0.68 2 0 2 C0 1.34 0 0.68 0 0 Z " fill="#164277" transform="translate(310,258)"/>
<path d="M0 0 C-2.97 2.475 -2.97 2.475 -6 5 C-6.33 4.01 -6.66 3.02 -7 2 C-5.26578631 -1.46842738 -3.40984787 -1.13661596 0 0 Z " fill="#D9EAF1" transform="translate(147,219)"/>
<path d="M0 0 C1.32 0.33 2.64 0.66 4 1 C4 2.98 4 4.96 4 7 C3.01 7.495 3.01 7.495 2 8 C1.34 5.36 0.68 2.72 0 0 Z " fill="#25436B" transform="translate(305,197)"/>
</svg>
